<svg xmlns="http://www.w3.org/2000/svg" viewBox="0 0 14.5 14.5">
  <g fill="#FFF">
    <path d="M10.67 7.33c-.02-1.75 1.42-2.58 1.49-2.63a3.22 3.22 0 0 0-2.53-1.36c-1.07-.11-2.1.63-2.64.63s-1.38-.62-2.27-.6A3.38 3.38 0 0 0 1.86 5.1c-1.22 2.11-.31 5.24.87 6.96.58.83 1.28 1.77 2.18 1.74.88-.03 1.2-.57 2.26-.57s1.36.57 2.28.55c.94-.01 1.54-.85 2.11-1.7.67-.96.94-1.9.96-1.95-.02-.02-1.83-.7-1.85-2.8zM8.93 2.2c.48-.58.8-1.4.72-2.2-.7.03-1.54.46-2.04 1.04a2.9 2.9 0 0 0-.73 2.14c.78.06 1.57-.4 2.05-.98z"/>
  </g>
</svg>
