<svg xmlns="http://www.w3.org/2000/svg" fill="#FFF" viewBox="0 0 76.3 69.7">
  <path d="M42.7 33.8c.5 2.4-1 4.8-3.4 5.3s-4.7-1-5.2-3.4 1-4.8 3.4-5.3c2.3-.5 4.7 1 5.2 3.4M24.4 0c-1.2 0-2.3.3-3.3.8a9.5 9.5 0 0 0-4.7 6.4c-.7 2.8-.7 6-.3 9.7l.6 3.6-4 1c-3.5 1-6.5 2.4-8.7 4.2a9.4 9.4 0 0 0-4 6.8 9 9 0 0 0 2.5 6.4c1.5 1.8 3.7 3.3 6.3 4.6a2.5 2.5 0 1 0 2.3-4.4 17 17 0 0 1-4.9-3.5c-1-1.1-1.2-2-1.2-2.8 0-1 .6-2 2-3.2 1.6-1.2 4-2.4 7.1-3.3l3.8-1a79.4 79.4 0 0 0 2.5 7.8c-3.2 6-5.6 11.9-6.7 17-.9 3.6-1.2 6.8-.8 9.6.4 2.8 1.6 5.4 3.8 7 2.3 1.4 5 1.4 7.7.7 2.6-.7 5.3-2.1 8.2-4.1a2.5 2.5 0 1 0-3-4.1c-2.4 1.8-4.7 3-6.5 3.4-1.8.5-2.9.3-3.6-.2-.7-.5-1.4-1.4-1.6-3.4-.3-1.9 0-4.6.6-7.8A61 61 0 0 1 23 39.1l1.4 2.9c4.6 9 10 16.4 15.5 21.4a27 27 0 0 0 8 5.4c2.6 1 5.4 1.3 7.8 0a9.4 9.4 0 0 0 4.6-6.1c.7-2.7.8-5.8.4-9.3-.7-6.9-3.3-15.3-7.5-24a2.5 2.5 0 1 0-4.5 2.1c4 8.3 6.4 16.4 7 22.5.4 3 .2 5.6-.3 7.4-.4 1.7-1.1 2.6-2 3-.7.4-1.9.5-3.7-.3-1.8-.7-4-2.2-6.5-4.4a74.3 74.3 0 0 1-14.4-20 92.3 92.3 0 0 1-2.8-6.2l2.7-4.6a95.1 95.1 0 0 1 3.6-5.2 93.2 93.2 0 0 1 6.4.1c9.5.5 18.1 2.4 24 5a23 23 0 0 1 6.8 4c1.4 1.4 1.8 2.5 1.8 3.4-.2 1.4-2.3 3.8-6.8 5.6a2.5 2.5 0 1 0 1.8 4.7c5.5-2.2 9.5-5.4 10-10a9.6 9.6 0 0 0-3.3-7.3c-2.1-2-4.9-3.6-8.2-5a77.6 77.6 0 0 0-25.9-5.4h-2.6c3-3.4 6-6.3 8.8-8.4 2.5-2 5-3.3 6.8-3.9 1.9-.5 3-.4 3.8 0 .8.6 1.3 1.5 1.6 3.1.3 1.7.2 4-.3 6.8a2.5 2.5 0 1 0 4.9 1c.6-3.2.8-6 .3-8.7-.4-2.5-1.6-5-3.8-6.3-2.4-1.5-5.2-1.5-8-.7S45 4.2 42 6.4c-4 3-8.2 7.4-12.2 12.4-2.8.2-5.6.4-8.2.8l-.6-3.3c-.3-3.2-.2-6 .3-7.8.5-1.9 1.2-2.8 2-3.2.7-.4 1.6-.5 3 0a19 19 0 0 1 5.4 3.1 2.5 2.5 0 1 0 3-4A23.2 23.2 0 0 0 27.8.7C26.7.2 25.5 0 24.4 0zM26 24l-1.5 2.2-.8 1.3-.9-3L26 24z"/>
</svg>
