<svg xmlns="http://www.w3.org/2000/svg" fill="#FFF" viewBox="0 0 24 24">
  <path d="M16.21 8.69l6.72-1.68A12.03 12.03 0 0 1 24 11.97a12.09 12.09 0 0 1-12.94 12l4.9-8.35c.36-.38.66-.8.89-1.27a5.45 5.45 0 0 0-.05-4.75 5.16 5.16 0 0 0-.59-.91zm-3.24 8.57l-2.12 6.69A12.02 12.02 0 0 1 2.04 5.28l4.83 8.38c.18.54 1.12 2.58 3.07 3.32 1 .39 2.04.48 3.03.29zm-1-9.64a4.52 4.52 0 0 0-4.28 3.51 4.48 4.48 0 0 0 1.24 4.03 4.49 4.49 0 0 0 4.73.93 4.49 4.49 0 0 0 2.7-3.43 4.53 4.53 0 0 0-2.5-4.63 4.41 4.41 0 0 0-1.89-.41zM7.05 9.96l-4.8-5A12.04 12.04 0 0 1 12 0c4.56 0 8.74 2.6 10.77 6.67H12.56a5.54 5.54 0 0 0-4.27 1.46 5.34 5.34 0 0 0-1.24 1.83z"/>
</svg>
