<svg version="1.1" xmlns="http://www.w3.org/2000/svg" xmlns:xlink="http://www.w3.org/1999/xlink" x="0px" y="0px" width="800px" height="800px" viewBox="0 0 200 200" enable-background="new 0 0 200 200" xml:space="preserve">
  <path fill="#fff" d="M161.842,27.2C144.943,10.305,122.477,1,98.508,1C49.103,1.033,8.881,41.279,8.845,90.708l-0.028,15.188
    l11.804-8.045c8.03-5.471,17.33-8.363,26.899-8.363c2.856,0,5.74,0.261,8.57,0.777c8.922,1.625,16.92,5.664,23.396,11.734
    c1.484-3.27,3.231-6.448,5.293-9.478c0.846-1.243,1.74-2.439,2.665-3.606c-8.159-6.89-17.959-11.527-28.656-13.475
    c-3.729-0.678-7.526-1.021-11.287-1.021c-7.79,0-15.379,1.429-22.609,4.25c5.854-35.865,37.005-62.575,73.681-62.602
    c19.879,0,38.564,7.739,52.617,21.788c11.211,11.21,18.383,25.229,20.857,40.692c-7.232-2.825-14.852-4.271-22.688-4.302
    l-1.098-0.005c-0.803,0.016-1.6,0.033-2.381,0.078c-1.369,0.07-2.729,0.194-4.076,0.35c-0.402,0.044-0.797,0.107-1.195,0.162
    c-0.965,0.13-1.926,0.276-2.877,0.447c-0.422,0.077-0.842,0.162-1.26,0.246c-0.969,0.197-1.93,0.416-2.881,0.656
    c-0.344,0.088-0.688,0.17-1.029,0.262c-1.201,0.325-2.391,0.684-3.564,1.077c-0.07,0.024-0.143,0.044-0.213,0.067
    c-2.664,0.909-5.246,2-7.742,3.255c-0.068,0.035-0.135,0.071-0.205,0.106c-1.168,0.592-2.312,1.225-3.439,1.891
    c-0.092,0.055-0.186,0.111-0.279,0.167c-5.895,3.534-11.17,8.066-15.615,13.48c-0.184,0.223-0.367,0.445-0.549,0.671
    c-0.964,1.208-1.903,2.443-2.784,3.736c-0.749,1.1-1.444,2.223-2.118,3.358c-0.153,0.259-0.304,0.521-0.453,0.782
    c-0.614,1.069-1.201,2.152-1.748,3.248c-0.031,0.063-0.062,0.122-0.093,0.185c-1.27,2.565-2.348,5.202-3.247,7.893
    c0,0.002-0.001,0.003-0.001,0.006v0.003c-2.202,6.6-3.27,13.521-3.157,20.524c0.003,0.278,0.003,0.556,0.013,0.835
    c0.015,0.544,0.042,1.09,0.073,1.637c0.024,0.435,0.052,0.867,0.084,1.299c0.034,0.461,0.071,0.923,0.118,1.385
    c0.055,0.563,0.122,1.125,0.193,1.688c0.044,0.358,0.083,0.718,0.136,1.074c0.134,0.937,0.284,1.872,0.461,2.807
    c3.038,16.061,12.086,30.064,25.479,39.432l1.713,1.095l0.014-0.034c7.609,4.947,16.336,8.192,25.369,9.418l1.223,0.165
    l9.084-14.579l-3.266-0.089c-25.135-0.69-45.582-21.708-45.582-46.854c0-24.75,19.342-45.303,44.025-46.792l1.562-0.06
    c10.006-0.253,19.865,2.702,28.234,8.4l11.75,7.997l0.025-15.11C188.082,66.645,178.77,44.127,161.842,27.2"/>
</svg>
