<svg xmlns="http://www.w3.org/2000/svg" viewBox="0 0 200 200">
  <path fill="#fff" d="M161.84 27.2A88.93 88.93 0 0 0 98.51 1C49.1 1.03 8.88 41.28 8.84 90.7l-.02 15.2 11.8-8.05a47.62 47.62 0 0 1 35.47-7.58A46 46 0 0 1 79.49 102a63.3 63.3 0 0 1 5.29-9.48 61.67 61.67 0 0 1 2.66-3.6A61.24 61.24 0 0 0 58.8 75.44a63.26 63.26 0 0 0-11.29-1.02 61.88 61.88 0 0 0-22.6 4.25 74.78 74.78 0 0 1 73.67-62.6 73.93 73.93 0 0 1 52.62 21.79 73.56 73.56 0 0 1 20.86 40.69 62.74 62.74 0 0 0-22.7-4.3l-1.09-.01a63.69 63.69 0 0 0-6.46.43c-.4.04-.8.1-1.2.16-.96.13-1.92.28-2.87.45l-1.26.24c-.97.2-1.93.42-2.88.66l-1.03.26c-1.2.33-2.39.69-3.56 1.08l-.21.07c-2.67.9-5.25 2-7.75 3.25l-.2.1a60.7 60.7 0 0 0-3.44 1.9l-.28.16a60.28 60.28 0 0 0-16.16 14.16c-.97 1.2-1.9 2.44-2.79 3.73a64 64 0 0 0-4.32 7.39l-.09.18a61.62 61.62 0 0 0-6.4 28.43v.84a56.47 56.47 0 0 0 .28 4.32l.2 1.68.13 1.08a61.9 61.9 0 0 0 25.94 42.24l1.71 1.1.02-.04a62.02 62.02 0 0 0 25.37 9.42l1.22.16 9.09-14.58-3.27-.09c-25.14-.69-45.58-21.7-45.58-46.85a46.93 46.93 0 0 1 44.02-46.8l1.56-.05c10.01-.26 19.87 2.7 28.24 8.4l11.75 8 .02-15.12a88.96 88.96 0 0 0-26.22-63.4"/>
</svg>
