<svg xmlns="http://www.w3.org/2000/svg" fill="#FFF" viewBox="0 0 24 24">
  <path d="M23.41 10.98c-.03-.21-.07-.34-.07-.34l-.22.28a7.71 7.71 0 0 0-.27-1.51 10.23 10.23 0 0 0-1.34-2.88l-.26-.38c-.43-.7-.91-1.12-1.48-1.92a5.9 5.9 0 0 1-.73-1.99c-.16.42-.28.86-.36 1.3-.57-.58-1.08-1-1.38-1.28C15.8.86 15.98.14 15.98.14s-2.8 3.12-1.59 6.37a6.25 6.25 0 0 0 2.09 2.78c1.17.96 2.43 1.72 3.09 3.67a6.16 6.16 0 0 0-2.33-2.47c.3.71.45 1.46.44 2.23a5.3 5.3 0 0 1-6.47 5.16c-.46-.09-.9-.24-1.31-.45a5.21 5.21 0 0 1-1.58-1.45v-.01l.09.03a4.2 4.2 0 0 0 3.33-.13c.84-.47 1.35-.81 1.76-.68.41.13.72-.26.44-.67a2.2 2.2 0 0 0-2.12-.82c-.84.12-1.61.71-2.7.14l-.21-.12c-.07-.05.24.06.16.01a4.82 4.82 0 0 1-.69-.41l.15.04a2.63 2.63 0 0 1-.72-.73 1.33 1.33 0 0 1-.05-1.15c.11-.19.26-.33.45-.42l.23.12-.1-.18.04-.01c.12.05.39.19.54.28.1.05.18.13.25.22 0 0 .05-.02.01-.13a.6.6 0 0 0-.26-.31h.02c.11.06.21.12.31.2.09-.22.14-.44.13-.67a.9.9 0 0 0-.05-.37c-.04-.08.02-.11.09-.03a.64.64 0 0 0-.06-.18l.06-.07c.05-.05.1-.1.16-.13a6.6 6.6 0 0 1 1.09-.56l.61-.27.22-.16c.26-.22.43-.52.49-.85l.01-.13v-.08c-.04-.17-.33-.29-1.84-.44A1.31 1.31 0 0 1 9.08 6.3v.01l-.06.17.06-.17V6.3c.29-.75.81-1.4 1.48-1.84.04-.03-.15.01-.11-.02.12-.06.25-.12.39-.17.07-.02-.29-.16-.61-.13-.19.01-.38.06-.56.13.08-.06.3-.14.25-.14-.41.07-.8.22-1.15.43a.3.3 0 0 1 .02-.1c-.28.12-.53.31-.71.55v-.13c-.13.1-.24.21-.35.33h-.01a4.65 4.65 0 0 0-2.61-.22l-.01-.01h.01a1.91 1.91 0 0 1-.46-.52l-.01.01-.02-.02c-.06-.08-.11-.18-.17-.29l-.14-.25-.01-.01c-.01 0-.03.09-.04.06-.15-.4-.23-.83-.21-1.25h-.01c-.25.17-.44.41-.53.7l-.11.21v-.03l.03-.15-.02.03a1.48 1.48 0 0 0-.3.56v-.05-.08l-.01.03a7.01 7.01 0 0 0-.6 2.25c-.02.14-.02.27-.02.4v.02c-.23.25-.43.52-.61.81-.58.98-1.01 2.04-1.28 3.15.19-.42.42-.83.69-1.21a11.05 11.05 0 0 0-.78 4.09c.09-.41.2-.81.33-1.21-.08 1.65.24 3.3.93 4.81a11.16 11.16 0 0 0 4.43 5.01c.79.54 1.66.96 2.57 1.24l.37.13-.11-.05c1.08.32 2.21.49 3.34.49 4.01 0 5.33-1.53 5.46-1.68a2 2 0 0 0 .47-.64l.23-.1.05-.02.09-.04a8.5 8.5 0 0 0 1.7-1.06 4.1 4.1 0 0 0 1.57-2.31c.15-.34.15-.71.03-1.06l.12-.21a9.44 9.44 0 0 0 1.42-4.59v-.14c0-.34-.03-.69-.09-1.03z"/>
</svg>
