<svg xmlns="http://www.w3.org/2000/svg" fill="#FFF" viewBox="0 0 24 24">
  <path d="M14.05 2.75L19 5.6a2.14 2.14 0 0 1 3.4.4 2.15 2.15 0 0 1-1.35 3.15v5.7A2.13 2.13 0 0 1 22.4 18a2.14 2.14 0 0 1-3.45.35l-4.9 2.84a2.14 2.14 0 1 1-4.1.07L5.02 18.4a2.14 2.14 0 1 1-2.05-3.56v-5.7A2.14 2.14 0 1 1 5.01 5.6l4.94-2.85a2.14 2.14 0 1 1 4.1 0zm-.51.88a.8.8 0 0 1-.06.06l6.46 11.19.08-.03v-5.7a2.14 2.14 0 0 1-1.56-2.6l.02-.06-4.94-2.86zm-3.02.06l-.06-.06-4.95 2.85a2.14 2.14 0 0 1-1.46 2.64l-.07.03v5.7l.08.03 6.46-11.2zm2.08.5c-.4.12-.8.12-1.2 0L4.94 15.4c.3.28.5.64.6 1.03h12.92c.1-.4.3-.76.6-1.04L12.6 4.19zm.98 16.23l4.92-2.84-.04-.14H5.54l-.02.08 4.94 2.86a2.14 2.14 0 0 1 3.12.05z"/>
</svg>
