<svg xmlns="http://www.w3.org/2000/svg" fill="#FFF" viewBox="0 0 116 22">
		<g>
			<path class="st0" d="M2.8,5.2c0-0.5,0-0.8-0.1-1c0-0.2-0.1-0.3-0.3-0.3c-0.2,0-0.5-0.1-1-0.1c-0.5,0-0.8,0-1,0.1     C0.3,4,0.2,4.1,0.1,4.2c0,0.2-0.1,0.5-0.1,1v7l2.8-2.2V5.2z"/>
			<path class="st0" d="M0.1,14v1.3v0.2c0,0.5,0,0.8,0.1,1c0,0.2,0.1,0.3,0.3,0.3c0.2,0,0.5,0.1,1,0.1c0.5,0,0.8,0,1-0.1     c0.2,0,0.3-0.1,0.3-0.3c0-0.2,0.1-0.5,0.1-1v-2.3v-1.3L0.1,14z"/>
			<path class="st0" d="M4.6,10.4v4.9c0,0.5,0,0.8,0.1,1c0,0.2,0.1,0.3,0.3,0.3c0.2,0,0.5,0.1,1,0.1c0.5,0,0.8,0,1-0.1     c0.2,0,0.3-0.1,0.3-0.3c0-0.2,0.1-0.5,0.1-1V8.2L4.6,10.4z"/>
			<path class="st0" d="M7.3,5.3V5.2c0-0.5,0-0.8-0.1-1C7.2,4.1,7.1,4,7,3.9c-0.2,0-0.5-0.1-1-0.1c-0.5,0-0.8,0-1,0.1     C4.8,4,4.7,4.1,4.6,4.2c0,0.2-0.1,0.5-0.1,1v2.3v1.2l2.8-2.2V5.3z"/>
			<path class="st0" d="M11.9,10.4v4.9c0,0.5,0,0.8-0.1,1c0,0.2-0.1,0.3-0.3,0.3c-0.2,0-0.5,0.1-1,0.1c-0.5,0-0.8,0-1-0.1     c-0.2,0-0.3-0.1-0.3-0.3c0-0.2-0.1-0.5-0.1-1V8.2L11.9,10.4z"/>
			<path class="st0" d="M9.1,5.3V5.2c0-0.5,0-0.8,0.1-1c0-0.2,0.1-0.3,0.3-0.3c0.2,0,0.5-0.1,1-0.1c0.5,0,0.8,0,1,0.1     c0.2,0,0.3,0.1,0.3,0.3c0,0.2,0.1,0.5,0.1,1v2.3v1.2L9.1,6.5V5.3z"/>
		</g>
</svg>
