<svg xmlns="http://www.w3.org/2000/svg" viewBox="0 0 287 287">
  <g transform="translate(20,0)">
    <path fill="#555" d="M7.96 72.36L129.71 1.48l121.74 70.88v141.66L129.7 284.9 7.96 214.02V72.36z"/>
    <path fill="#FFF" d="M133.12 143.13l113.2-65.2 4.56 131.42-117.76 71.11V143.13z"/>
    <path fill="#555" fill-rule="evenodd" d="M248.04 73.96l-.35 139.26-118.1 68.5-.57-136.88 119.02-70.88zm-99.33 82.26l.34 91.47 39.25-22.87-.11-68.94 19.8-11.72v69.17l19.8-11.6.1-92.62-79.18 47.1z"/>
    <path fill="#FFF" d="M137.44 2.5c-5.46-3.07-14.22-3.07-19.68 0L9.9 64.51C4.44 67.58.1 75.32.1 81.46v124.02c0 6.26 4.44 13.88 9.79 16.96l107.86 62c5.46 3.08 14.22 3.08 19.68 0l107.86-62c5.47-3.08 9.79-10.81 9.79-16.96V81.47c0-6.26-4.44-13.89-9.78-16.96l-107.87-62zm95.7 64.86c5.45 3.07 5.45 8.19 0 11.26l-94.45 54.27c-5.46 3.07-14.22 3.07-19.68 0l-95.8-55.07c-5.46-3.07-5.46-8.19 0-11.26l94.44-54.27c5.46-3.07 14.22-3.07 19.68 0l95.8 55.07zM8.53 90.46c0-6.26 4.43-8.77 9.78-5.7l96.6 55.53c5.46 3.07 9.78 10.8 9.78 16.95v110.14c0 6.26-4.44 8.76-9.78 5.69l-96.6-55.53c-5.46-3.07-9.79-10.8-9.79-16.95V90.45zm134.6 180.9c-5.47 3.07-9.8.57-9.8-5.69V157.24c0-6.26 4.44-13.88 9.8-16.95l93.74-53.82c5.47-3.07 9.79-.57 9.79 5.69v108.43c0 6.26-4.44 13.88-9.79 16.95l-93.75 53.82z"/>
  </g>
</svg>
